<svg id="Layer_1" enable-background="new 0 0 512.553 512.553" height="512" viewBox="0 0 512.553 512.553" width="512" xmlns="http://www.w3.org/2000/svg"><path d="m256.287 159.042c9.493 0 17.216 7.723 17.216 17.216s-7.723 17.216-17.216 17.216-17.216-7.723-17.216-17.216 7.723-17.216 17.216-17.216z"/><path d="m411.386 492.201-41.979-149.997h10.237c8.837 0 16-7.163 16-16s-7.163-16-16-16h-19.192l-24.545-87.704c25.153-43.141 11.285-99.283-32.664-125.439v-50.973c0-25.413-20.675-46.088-46.088-46.088s-46.088 20.675-46.088 46.088v49.964c-45.798 25.922-60.231 84.055-33.51 127.952-.45 1.189 1.335-4.947-24.594 86.2h-20.033c-8.837 0-16 7.163-16 16s7.163 16 16 16h10.93l-42.654 149.932c-3.822 13.436 10.297 25.023 22.739 18.59l71.229-36.833c3.917-2.025 6.824-5.577 8.035-9.817l34.809-121.871h37.239l34.085 121.789c1.196 4.274 4.115 7.86 8.059 9.899 76.975 39.805 73.158 38.621 78.575 38.621 10.634 0 18.248-10.169 15.41-20.313zm-168.319-446.113c0-7.769 6.319-14.088 14.088-14.088s14.088 6.319 14.088 14.088v39.294c-9.341-1.532-18.793-1.623-28.176-.268zm-68.73 402.555-32.229 16.666c1.263-4.44 55.252-194.216 60.875-213.985 7.342 5.229 15.481 9.404 24.195 12.314-5.657 19.808-47.598 166.648-52.841 185.005zm72.821-138.439 9.669-33.853 9.474 33.853zm9.129-73.849c-33.138 0-60.098-26.959-60.098-60.097s26.96-60.098 60.098-60.098 60.098 26.96 60.098 60.098-26.96 60.097-60.098 60.097zm81.995 212.311c-8.321-29.733-46.641-166.654-51.879-185.373 8.714-3.023 16.836-7.321 24.145-12.669 2.483 8.873 52.224 186.606 60.11 214.783z"/></svg>